<?xml version="1.0" encoding="UTF-8"?>
<svg id="Layer_2" data-name="Layer 2" xmlns="http://www.w3.org/2000/svg" viewBox="0 0 317.43 273.76">
  <defs>
    <style>
      .cls-1 {
        fill: #fff;
      }

      .cls-2 {
        fill: #1490dd;
      }

      .cls-3 {
        fill: #2090d6;
      }

      .cls-4 {
        fill: none;
      }

      .cls-5 {
        fill: #ee9f0b;
      }

      .cls-6 {
        fill: #004a86;
      }

      .cls-7 {
        fill: #fee102;
      }

      .cls-8 {
        fill: #022e62;
      }
    </style>
  </defs>
  <g id="Layer_1-2" data-name="Layer 1">
    <g>
      <path class="cls-1" d="M262.41,263.88c-73.91,10.41-155.47,18.87-225.48-8.83C-12.31,185.81-12.31,88.87,36.93,19.62c75.4-26.16,168.5-26.16,243.9,0,46.16,65.4,48.47,155.42,7.98,224.15-3.92,9.41-15.33,18.37-26.39,20.11Z"/>
      <g>
        <path class="cls-8" d="M228.3,133.02c-18.81-3.71-36.47-1.71-54.36,4.71-20.16,7.24-37.54,20.55-57.8,27.49-13.63,4.66-24.95,5.21-38.82,6.98l12.19-4.46c23.08-7.9,43.62-21.78,66.11-30.85,21.83-8.81,45.81-13.09,68.81-5.91,1.06.33,3.56.87,3.88,2.05Z"/>
        <path class="cls-7" d="M256.26,117.65l-3.22-3.06c-1.11-1.68-2.28-3.31-3.51-4.89-22.35-28.77-64.23-41.94-99.75-33.97-.24.06-2.82,1.01-4.28,1.42-36.74,10.47-62.49,41.35-59.1,81.4.12,1.4,1.55,9.38,2.43,9.43.11-.04.22-.08.34-.11l-8.29,3.03-3.57,1.31c-.1,0-.2.02-.29.03-2.31.3-6.1,2.88-8.16.35-2.16-2.66-3-12.05-4.8-15.47-10-76.73,70.33-125.9,138.12-97.9,14.33,5.91,32.75,20.11,41.92,33.55,5.02,7.35,9.69,16.41,12.16,24.89Z"/>
        <path class="cls-8" d="M284.23,182.65c-.69.7-6.1-4.55-7.04-5.19-59.29-40.25-116.01,20.85-177.13,24.1-29.08,1.55-63.89-5.01-82.86-28.68,1.08.5,2.16.99,3.24,1.45,33.32,14.24,70.16,9.07,103.18-3.73,29-11.24,53.92-29.73,86.17-31.97,25.03-1.74,46.33,6.56,61.29,23.48,5.17,5.84,9.59,12.7,13.15,20.54Z"/>
        <path class="cls-8" d="M275.84,186.87l-.33,1.37c-14.84-3.87-29.53-4.34-44.54-1.17-23.16,4.88-42.15,20.61-65,25.89-16.41,3.79-33.47,3.26-49.92,0-3.39-.67-6.75-1.45-10.07-2.34,1.69-2.13,6.05-1.15,8.65-1.48,5.32-.68,10.74-1.68,15.96-2.92,38.95-9.15,61.15-35.44,105.09-32.68,6.13.38,11.97,1.53,17.62,3.26,7.83,2.4,15.27,5.91,22.54,10.06Z"/>
        <path class="cls-8" d="M245.08,193.85c-1.2,2.54-2.55,5.01-4.05,7.39-13.14,20.9-37.39,35.95-61.08,41.07-28.21,6.1-61.36.8-86.26-14.82-3.15-1.96-6.16-4.1-9.02-6.4-1.22-.98-9.19-8.14-9.45-8.72-.18-.41-.13-1.18.34-1.03,51.65,25.48,117.18,23.98,163.56-11.91l5.96-5.56Z"/>
        <path class="cls-5" d="M208.03,23.98v29.36c-5.86-.2-11.5-3.49-17.29-4.73-2.3-.23,1.43-5.11,2.2-6.18,3.31-4.55,7.65-9.21,11.12-13.72,1.02-1.33,1.56-4.78,3.97-4.72Z"/>
        <path class="cls-5" d="M117.46,32.08c2.88,3.24,5.3,6.27,8.12,9.52,1.33,1.53,4,3.34,5.12,4.72.38.47.75.33.43,1.41-6.44,1.76-12.98,5.09-19.57,5.61l-.69-28.66c2.48,2.15,4.42,4.96,6.59,7.4Z"/>
        <path class="cls-5" d="M151.41,44.95c1.52-6.38,4.41-12.5,5.09-19.03l3.64-8.94,10.14,27.97h-18.87Z"/>
        <path class="cls-5" d="M75,50.78c6.22,2.55,14.46,7.25,20.34,9.52,1.23.47,3.21-.89,2.29,2.43-.12.42-6.12,3.35-7.54,4.39-1.27.92-6.3,6-7.46,5.78l-12.99-22.71c-.11-2.41,1.64-.14,2.63.19.84.28,1.76.02,2.73.42Z"/>
        <path class="cls-5" d="M249.97,49.15c1.24,1.55-1.09,2.86-1.34,3.37-1.76,3.63-3.9,6.77-5.85,10.09-.81,1.38-5.14,10.36-5.75,10.33-5.28-3.23-9.52-7.53-15.02-10.52l.4-1.43,27.55-11.84Z"/>
        <path class="cls-5" d="M69.62,88.3c.37.39-2.4,5.49-2.88,6.39-.86,1.63-2.17,4.69-2.95,5.95-2.56,4.13-3.95-.36-5.67-1.9-4.62-4.14-11.72-9.13-15.42-13.94-.54-.7-1.36-.89-1.04-2.1l27.96,5.6Z"/>
        <path class="cls-5" d="M59.14,117.66c-1,5.61-3.25,11.1-3.5,16.77-.89.92-19.11-7.62-22.36-7-.22-1.46.84-2.03,1.94-2.6,3.29-1.69,16.94-5.97,20.98-6.99.99-.25,1.94-.28,2.95-.19Z"/>
        <line class="cls-4" x1="90.25" y1="167.46" x2="89.51" y2="167.73"/>
        <path class="cls-5" d="M249.54,109.69c-22.35-28.77-64.23-41.94-99.75-33.97-.24.06-2.82,1.01-4.28,1.42-36.74,10.47-62.49,41.35-59.1,81.4.12,1.4,1.55,9.38,2.43,9.43.11-.04.22-.08.34-.11l-8.29,3.03c-2.46-7.2-3.78-14.82-3.78-22.7,0-44.16,41.39-79.96,92.44-79.96,24.77,0,46.82,10.09,63.42,23.8,6.44,5.33,12.05,11.22,16.57,17.67Z"/>
        <path class="cls-6" d="M271.08,162.11c-13.49-8.54-40.69-19.79-79.29-7.03,0,0-55.45,22.84-69.01,27.12-13.32,4.21-62.26,13.25-102.34-7.89,33.32,14.24,70.16,9.07,103.18-3.73,29-11.24,53.92-29.73,86.17-31.97,25.03-1.74,46.33,6.56,61.29,23.48Z"/>
        <path class="cls-3" d="M253.3,176.81c-10.02-1.17-30.75-1.12-53.18,13.5-26.05,16.97-57.83,25.93-84.07,22.65-3.39-.67-6.75-1.45-10.07-2.34,1.69-2.13,6.05-1.15,8.65-1.48,5.32-.68,10.74-1.68,15.96-2.92,38.95-9.15,61.15-35.44,105.09-32.68,6.13.38,11.97,1.53,17.62,3.26Z"/>
        <path class="cls-2" d="M245.08,193.85c-1.2,2.54-2.55,5.01-4.05,7.39-21.89,22.84-55.29,37.43-92.72,37.43-19.68,0-38.24-4.03-54.61-11.18-3.15-1.96-6.16-4.1-9.02-6.4-1.22-.98-9.19-8.14-9.45-8.72-.18-.41-.13-1.18.34-1.03,51.65,25.48,117.18,23.98,163.56-11.91l5.96-5.56Z"/>
      </g>
    </g>
  </g>
</svg>