<?xml version="1.0" encoding="UTF-8"?>
<svg id="Layer_2" data-name="Layer 2" xmlns="http://www.w3.org/2000/svg" viewBox="0 0 712.78 196.17">
  <defs>
    <style>
      .cls-1 {
        fill: #fff;
      }
    </style>
  </defs>
  <g id="Layer_1-2" data-name="Layer 1">
    <g>
      <g>
        <path class="cls-1" d="M181.8,99.93c-16.2-3.2-31.41-1.47-46.81,4.06-17.36,6.23-32.33,17.7-49.78,23.67-11.74,4.02-21.49,4.48-33.44,6.01l10.5-3.84c19.87-6.8,37.56-18.75,56.93-26.57,18.8-7.59,39.45-11.27,59.25-5.09.91.28,3.06.75,3.34,1.76Z"/>
        <path class="cls-1" d="M205.88,86.69l-2.77-2.64c-.96-1.44-1.96-2.85-3.02-4.21-19.25-24.78-55.31-36.12-85.9-29.26-.21.05-2.43.87-3.68,1.22-31.64,9.02-53.82,35.61-50.9,70.1.1,1.2,1.34,8.08,2.09,8.12.1-.04.19-.07.29-.1l-7.14,2.61-3.08,1.13c-.08,0-.17.02-.25.03-1.99.26-5.26,2.48-7.03.3-1.86-2.29-2.58-10.38-4.13-13.32C31.75,54.59,100.93,12.25,159.31,36.36c12.34,5.09,28.2,17.32,36.1,28.89,4.32,6.33,8.34,14.13,10.47,21.44Z"/>
        <path class="cls-1" d="M229.96,142.67c-.6.6-5.26-3.92-6.06-4.47-51.06-34.66-99.9,17.95-152.54,20.75-25.04,1.34-55.02-4.31-71.36-24.7.93.43,1.86.85,2.79,1.25,28.7,12.26,60.42,7.81,88.86-3.21,24.98-9.68,46.44-25.6,74.21-27.53,21.56-1.5,39.89,5.65,52.78,20.22,4.45,5.03,8.26,10.94,11.32,17.69Z"/>
        <path class="cls-1" d="M222.73,146.3l-.28,1.18c-12.78-3.33-25.43-3.74-38.36-1.01-19.94,4.2-36.29,17.75-55.97,22.29-14.13,3.26-28.82,2.81-42.99,0-2.92-.58-5.81-1.25-8.67-2.02,1.46-1.83,5.21-.99,7.45-1.27,4.58-.58,9.25-1.45,13.74-2.51,33.54-7.88,52.66-30.52,90.5-28.14,5.28.33,10.31,1.32,15.18,2.81,6.74,2.06,13.15,5.09,19.41,8.66Z"/>
        <path class="cls-1" d="M196.25,152.31c-1.03,2.19-2.2,4.31-3.49,6.36-11.31,18-32.2,30.96-52.6,35.37-24.3,5.25-52.84.69-74.28-12.76-2.71-1.69-5.3-3.53-7.77-5.51-1.05-.84-7.92-7.01-8.14-7.51-.16-.35-.11-1.02.29-.89,44.48,21.94,100.91,20.65,140.86-10.26l5.13-4.79Z"/>
        <path class="cls-1" d="M164.34,6.02v25.28c-5.04-.17-9.9-3.01-14.89-4.07-1.98-.2,1.23-4.4,1.9-5.33,2.85-3.92,6.58-7.93,9.57-11.82.88-1.15,1.34-4.12,3.42-4.07Z"/>
        <path class="cls-1" d="M86.35,13c2.48,2.79,4.56,5.4,7,8.2,1.15,1.32,3.45,2.87,4.41,4.07.33.4.65.28.37,1.21-5.55,1.52-11.18,4.39-16.86,4.83l-.59-24.68c2.13,1.85,3.8,4.27,5.68,6.38Z"/>
        <path class="cls-1" d="M115.58,24.08c1.31-5.49,3.8-10.76,4.38-16.39l3.14-7.7,8.74,24.08h-16.25Z"/>
        <path class="cls-1" d="M49.78,29.11c5.36,2.19,12.45,6.25,17.51,8.19,1.06.41,2.77-.77,1.97,2.09-.1.36-5.27,2.89-6.49,3.78-1.09.79-5.43,5.17-6.43,4.97l-11.19-19.56c-.09-2.07,1.41-.12,2.27.16.72.24,1.52.02,2.35.36Z"/>
        <path class="cls-1" d="M200.46,27.7c1.07,1.33-.94,2.46-1.15,2.9-1.51,3.13-3.36,5.83-5.04,8.69-.7,1.19-4.43,8.92-4.95,8.9-4.54-2.78-8.2-6.49-12.93-9.06l.35-1.23,23.72-10.19Z"/>
        <path class="cls-1" d="M45.15,61.42c.32.34-2.07,4.72-2.48,5.51-.74,1.41-1.87,4.04-2.54,5.12-2.2,3.56-3.4-.31-4.88-1.63-3.98-3.56-10.1-7.86-13.28-12.01-.46-.6-1.17-.76-.9-1.81l24.08,4.82Z"/>
        <path class="cls-1" d="M36.12,86.7c-.86,4.83-2.8,9.56-3.01,14.44-.77.79-16.45-6.56-19.26-6.03-.19-1.26.72-1.75,1.67-2.24,2.83-1.45,14.59-5.14,18.06-6.02.85-.21,1.67-.24,2.54-.17Z"/>
        <line class="cls-1" x1="62.92" y1="129.59" x2="62.27" y2="129.82"/>
        <path class="cls-1" d="M200.09,79.84c-19.25-24.78-55.31-36.12-85.9-29.26-.21.05-2.43.87-3.68,1.22-31.64,9.02-53.82,35.61-50.9,70.1.1,1.2,1.34,8.08,2.09,8.12.1-.04.19-.07.29-.1l-7.14,2.61c-2.12-6.2-3.26-12.76-3.26-19.55,0-38.03,35.64-68.86,79.61-68.86,21.33,0,40.32,8.69,54.61,20.49,5.54,4.59,10.38,9.66,14.27,15.22Z"/>
        <path class="cls-1" d="M218.64,124.98c-11.62-7.36-35.04-17.04-68.28-6.05,0,0-47.75,19.67-59.43,23.36-11.47,3.62-53.61,11.41-88.13-6.79,28.7,12.26,60.42,7.81,88.86-3.21,24.98-9.68,46.44-25.6,74.21-27.53,21.56-1.5,39.89,5.65,52.78,20.22Z"/>
        <path class="cls-1" d="M203.33,137.64c-8.63-1.01-26.48-.96-45.79,11.62-22.44,14.62-49.8,22.33-72.4,19.5-2.92-.58-5.81-1.25-8.67-2.02,1.46-1.83,5.21-.99,7.45-1.27,4.58-.58,9.25-1.45,13.74-2.51,33.54-7.88,52.66-30.52,90.5-28.14,5.28.33,10.31,1.32,15.18,2.81Z"/>
        <path class="cls-1" d="M196.25,152.31c-1.03,2.19-2.2,4.31-3.49,6.36-18.85,19.67-47.62,32.24-79.85,32.24-16.95,0-32.94-3.47-47.03-9.63-2.71-1.69-5.3-3.53-7.77-5.51-1.05-.84-7.92-7.01-8.14-7.51-.16-.35-.11-1.02.29-.89,44.48,21.94,100.91,20.65,140.86-10.26l5.13-4.79Z"/>
      </g>
      <g>
        <g>
          <path class="cls-1" d="M712.78,137.22v3.62c-155.08-.18-310.33.35-465.39-.27-.76-.53-.87-3.3-.26-3.36h465.64Z"/>
          <g>
            <path class="cls-1" d="M649.76,86.82c-.67-6.69-5.29-11.63-11.75-13.22-6.04-1.48-22.29-1.28-28.78-.58-6.52.7-13.05,4.15-14.48,11.08-.69,3.34-.76,12.76-.55,19.34.07,2.22.17,4.12.3,5.35,1.14,11.35,11.76,12.83,21.09,13.37,9.93.58,28.3,1.54,33.09-9.1.78-1.73,1.19-5.45,1.37-9.62.27-6.24.02-13.48-.29-16.62ZM637.29,104.64c-.4,3.65-1.82,5.8-5.63,6.25-3.21.39-17.24.44-19.94-.29-2.77-.74-3.88-3.32-4.14-5.97-.03-.3-.06-.7-.08-1.2-.21-4.16-.2-14.33.54-16.18,1.02-2.53,3.92-3.46,6.39-3.71,4.02-.4,18.11-.6,20.91,1.96,2.4,2.18,2.4,13.16,2.07,17.93-.03.46-.07.87-.1,1.2Z"/>
            <path class="cls-1" d="M412.93,81.76c-1.4-3.18-4.08-5.67-7.22-7.04-6.08-2.65-25.43-2.55-32.43-1.7-6.59.79-12.69,4.85-13.86,11.69-.53,3.05-.72,11.73-.37,18.74.2,4.04.58,7.52,1.17,9.04,4.33,11.02,22.05,10.23,31.94,9.71,10.23-.54,21-2.28,22.26-14.59.11-1.07.2-2.5.25-4.17.25-6.97-.05-17.87-1.73-21.68ZM401.06,106.73c-.75,2.88-3.2,3.84-5.95,4.15-3.7.41-15.92.45-19.21-.41-2.75-.72-3.95-2.41-4.29-5.23-.05-.47-.1-1.09-.14-1.81-.23-4.12-.2-11.59.2-14.21.55-3.54,3.06-5.06,6.36-5.53,3.73-.54,16.62-.62,19.75.74,2.16.93,3.3,3.01,3.58,5.33.27,2.25.36,9.23.08,13.67-.08,1.46-.21,2.64-.38,3.29Z"/>
            <path class="cls-1" d="M293.77,83.54h-35.07c.36,1.91-1.12,7.73,1.49,7.73h28.23c.16.43-.59.71-.59.89v8.92c0,.18.75.46.59.89h-29.71v8.92h35.07v10.1h-47.55v-48.14h47.55v10.7Z"/>
            <path class="cls-1" d="M520.2,72.84v36.55c0,2.49-3.13,6.96-5.15,8.51-7.35,5.66-33.81,5.85-41.64.84-2.44-1.55-6.69-7.11-6.69-9.95v-34.47c0-.1-1.02-1.49.3-1.49h12.18v31.8c0,1.84,1.94,4.96,3.82,5.69,2.34.92,16.08.93,18.92.41,2-.36,5.19-2.89,5.19-4.91v-31.5c0-.1-1.02-1.49.3-1.49h12.77Z"/>
            <path class="cls-1" d="M710.98,93.65v27.34h-10.99l-18.56-17.54-14.13-13.36c-1.82-.15-.29.64-.29.88v30.02h-12.48v-46.66c0-.1-1.03-1.49.29-1.49h11.29l32.92,30.6.96.9c.03-.3.04-.6.05-.9.08-3.27-.96-6.94.54-9.79h10.4Z"/>
            <path class="cls-1" d="M359.74,72.84l-16.08,30.6-9.24,17.58c-2.62-.53-10.78.85-12.43-.62l-9.22-16.96-16.63-30.6h15.15l15.86,30.6,1.08,2.09,1.16-2.09,16.96-30.6h13.37Z"/>
            <path class="cls-1" d="M572.51,72.84v11.29h-17.83v36.85h-12.77c-.65,0-.85-1.45-.92-2.05-.59-5.02-.08-10.31.31-15.49.16-2.19.31-4.37.34-6.5.06-4.26-.8-8.67-.03-12.81h-17.24v-11.29h48.14Z"/>
            <path class="cls-1" d="M463.15,111.77v9.21h-43.98v-48.14h13.07v38.04h30.02c.06,0,.89.82.89.89Z"/>
            <rect class="cls-1" x="576.67" y="72.84" width="13.08" height="48.14"/>
          </g>
          <path class="cls-1" d="M499.07,30.06l7.1.13c4.56,5.9,9.71,11.37,14.88,16.72,1-.49-.3-1.76-.3-2.1v-14.75h6.02v25.89c-1.44-.14-3.12.25-4.5-.01-3.61-.69-12.83-15.79-17.17-18.05v18.06h-6.02v-25.89Z"/>
          <path class="cls-1" d="M352.78,42.1v3.61h-106.55c-.18,0-.17-2.99-.6-3.61h107.16Z"/>
          <path class="cls-1" d="M578.61,38.42c.39.6,10.52,2.23,12.43,2.91,4.52,1.61,6.42,4.48,5.41,9.36-1.94,9.38-23.69,5.71-24.44,2.49-.14-.59.69-3.63,1.46-3.84.62-.17,6.26,2.02,7.92,2.23,2.57.32,12.22.37,9.23-4.24-2.24-3.46-19.91-.35-17.97-11.41,1.52-8.67,16.69-7.49,22.49-4.07l-1.85,4.81c-2.32-2.22-12.98-3.74-14.46-1.2-.36.63-.57,2.41-.22,2.95Z"/>
          <rect class="cls-1" x="609.24" y="42.1" width="102.34" height="3.61"/>
          <path class="cls-1" d="M436.41,31.31c-.12,7.75-3.29,3.6-7.53,3.01-2.26-.31-8.69-.64-8.71,2.67-.01,2.61,10.39,3.53,12.84,4.64,3.6,1.63,5.12,4.01,4.67,8.01-.91,8.03-12.99,7.78-18.81,6.13-2.15-.61-5.14-1.41-4.6-4.19.81-4.17,5.17-.45,8.19,0,2.72.4,12.7.35,9.22-4.4-2.28-3.11-15.16-.93-16.77-7.91-2.68-11.65,14.51-11.08,21.49-7.96Z"/>
          <path class="cls-1" d="M553.86,30.32c-.82-1.04-5.6-.1-7.24.04l-12.03,25.59c1.36-.28,5.03.46,5.92-.1.45-.28,2.17-5.77,2.91-5.94,1.34-.33,13.68-.17,14.1.4.75.99,1.61,4.89,2.32,5.37,1.27.85,4.42-.36,6.04.88l-12.02-26.24ZM545.42,45.11c1.43-3.32,3.49-6.72,4.22-10.23,2.7,2.57,3.27,7.09,5.41,10.23h-9.63Z"/>
          <path class="cls-1" d="M381.38,30.06c-5.13-.85-12.38.63-17.76,0v26.49c1.79-.9,3.63-.9,5.42,0v-8.43c3.95-1.23,8.28-.07,12.2-.75,9.67-1.67,9.77-15.72.14-17.31ZM381.32,42.04c-.31.2-3.37,1.27-3.55,1.27h-8.73v-8.43h11.14c2.34,0,4.03,5.3,1.14,7.16Z"/>
          <path class="cls-1" d="M472.51,53.47c-.19.32-5.07,2.61-5.91,2.82-10.78,2.62-22.64-3.13-20.95-15.53,1.32-9.7,12.02-12.71,20.47-11.15,1.25.23,7.36,2.95,7.04,4.33-.07.29-3.02,3.19-3.28,3.21-.37.03-3.76-2.41-5.57-2.72-1.48-.25-3.82-.34-5.29-.16-10.85,1.35-11.45,19.16,4.23,17.47,1.97-.21,5.96-2.42,6.53-2.31.9.17,3.38,2.92,2.72,4.05Z"/>
          <path class="cls-1" d="M711.58,72.84v16.34c0,.43-.72.65-1.21.65-5.06.01-10.44-1.16-15.43.24v-17.24h16.64Z"/>
          <path class="cls-1" d="M403.35,30.06v25.59c0,.71-6.02.62-6.02.3v-26.49c1.87.98,3.99.55,6.02.6Z"/>
          <path class="cls-1" d="M487.63,30.06v25.89h-5.42v-25.59c0-1.31,4.24.13,5.42-.3Z"/>
        </g>
        <g>
          <path class="cls-1" d="M252.44,151.72h3.05l6.08,12.95h-3.13l-1.23-2.93h-6.45l-1.28,2.93h-3.12l6.09-12.95ZM253.98,154.8l-2.11,4.46h4.21l-2.1-4.46Z"/>
          <path class="cls-1" d="M274.39,165.42c-.25-.25-.5-.58-.77-.99-.85.29-1.77.44-2.75.44-1.96,0-3.66-.58-5.1-1.74-1.6-1.29-2.4-2.98-2.4-5.06,0-1.27.34-2.43,1.02-3.48.65-1.01,1.55-1.82,2.71-2.42,1.15-.6,2.41-.9,3.76-.9,1.94,0,3.63.59,5.06,1.78,1.57,1.3,2.35,2.99,2.35,5.06,0,2.18-.88,3.93-2.65,5.25.59.78,1.56,1.38,2.91,1.81l-1.85,1.8c-.92-.39-1.68-.91-2.3-1.54ZM272.42,162.27l-.15-.3c-.52-1.03-.92-1.71-1.22-2.02-.5-.52-1.31-.94-2.42-1.28l1.83-1.78c1.06.52,1.83,1.04,2.33,1.56.56.58,1.12,1.42,1.66,2.54.74-.78,1.11-1.75,1.11-2.9,0-1.34-.5-2.42-1.49-3.26-.92-.77-2-1.15-3.24-1.15s-2.36.38-3.25,1.14c-.97.83-1.45,1.93-1.45,3.3s.57,2.57,1.71,3.4c.89.65,1.9.98,3.04.98.55,0,1.06-.07,1.54-.22Z"/>
          <path class="cls-1" d="M281.54,151.72h2.93v7.77c0,1.97.79,2.96,2.36,2.96s2.47-1,2.47-3v-7.72h2.93v7.72c0,1.87-.42,3.25-1.25,4.16-.87.93-2.23,1.4-4.09,1.4s-3.25-.46-4.11-1.38c-.83-.89-1.25-2.28-1.25-4.17v-7.72Z"/>
          <path class="cls-1" d="M295.73,151.72h8.63v2.41h-5.65v2.61h4.32v2.38h-4.32v3.14h5.65v2.42h-8.63v-12.95Z"/>
          <path class="cls-1" d="M320.37,154.01l-1.91,1.65c-1.3-1.24-2.76-1.86-4.39-1.86-1.27,0-2.38.37-3.31,1.12-1.03.83-1.55,1.92-1.55,3.27,0,1.78.8,3.07,2.39,3.87.76.38,1.6.57,2.53.57s1.68-.16,2.39-.49c.59-.27,1.24-.73,1.95-1.36l1.85,1.74c-.99.87-1.95,1.5-2.86,1.88-.97.4-2.1.6-3.36.6-2.06,0-3.8-.55-5.2-1.66-1.59-1.26-2.39-2.98-2.39-5.16,0-2.64,1.25-4.6,3.75-5.87,1.2-.61,2.5-.92,3.88-.92,2.51,0,4.59.87,6.24,2.61Z"/>
          <path class="cls-1" d="M323.1,151.72h2.99v12.95h-2.99v-12.95Z"/>
          <path class="cls-1" d="M345.79,151.72v12.95h-2.77v-8.3l-4.01,8.3h-3.01l-3.92-8.02v8.02h-2.77v-12.95h3.44l4.77,9.48,4.84-9.48h3.44Z"/>
          <path class="cls-1" d="M349.28,151.72h8.63v2.41h-5.65v2.61h4.32v2.38h-4.32v3.14h5.65v2.42h-8.63v-12.95Z"/>
          <path class="cls-1" d="M360.71,151.72h2.88l6.78,8.53v-8.53h3.01v12.95h-2.9l-6.76-8.5v8.5h-3.01v-12.95Z"/>
          <path class="cls-1" d="M375.46,151.72h9.88v2.43h-3.41v10.52h-3.06v-10.52h-3.42v-2.43Z"/>
          <path class="cls-1" d="M394.5,151.4c1.94,0,3.63.59,5.06,1.78,1.57,1.3,2.36,2.99,2.36,5.06s-.79,3.73-2.36,5.02c-1.42,1.16-3.1,1.74-5.05,1.74s-3.66-.58-5.1-1.74c-1.6-1.29-2.4-2.98-2.4-5.06,0-1.27.34-2.43,1.02-3.48.65-1.01,1.56-1.82,2.71-2.42,1.16-.6,2.41-.9,3.75-.9ZM394.48,153.81c-1.28,0-2.36.38-3.25,1.14-.97.83-1.46,1.93-1.46,3.3s.57,2.56,1.72,3.4c.89.65,1.91.98,3.04.98,1.24,0,2.31-.38,3.21-1.15.98-.84,1.47-1.92,1.47-3.24s-.5-2.43-1.49-3.26c-.91-.77-1.99-1.15-3.23-1.15Z"/>
          <path class="cls-1" d="M436.34,153.49l-2.22,1.61c-.78-.89-1.57-1.34-2.38-1.34-.29,0-.57.13-.84.4-.32.31-.49.7-.49,1.15,0,.4.53.81,1.61,1.22,1.56.6,2.56,1.05,3.01,1.35,1.08.72,1.61,1.63,1.6,2.75-.01,1.25-.54,2.31-1.59,3.17-.97.8-2.06,1.21-3.26,1.21-2.24,0-3.94-.94-5.08-2.81l2.53-1.25c.76,1.14,1.63,1.72,2.62,1.72.42,0,.81-.16,1.19-.49.44-.39.65-.87.64-1.44-.01-.48-.56-.92-1.64-1.35-1.66-.65-2.66-1.09-3-1.3-1.07-.68-1.6-1.58-1.59-2.7,0-1.07.49-2.01,1.45-2.83.9-.77,1.87-1.15,2.89-1.15,1.59,0,3.11.7,4.57,2.09Z"/>
          <path class="cls-1" d="M439.48,151.72h4.07c3.78,0,5.67,1.28,5.67,3.85,0,2.71-2.25,4.06-6.74,4.06v5.05h-3v-12.95ZM442.48,157.23h1.66c.53,0,1.01-.13,1.42-.38.49-.31.74-.73.74-1.28,0-.96-.75-1.44-2.26-1.44h-1.56v3.09Z"/>
          <path class="cls-1" d="M456.62,151.72h3.05l6.08,12.95h-3.13l-1.23-2.93h-6.45l-1.28,2.93h-3.12l6.09-12.95ZM458.17,154.8l-2.11,4.46h4.21l-2.1-4.46Z"/>
          <path class="cls-1" d="M504.28,154.01l-1.91,1.65c-1.3-1.24-2.76-1.86-4.39-1.86-1.27,0-2.38.37-3.31,1.12-1.03.83-1.55,1.92-1.55,3.27,0,1.78.8,3.07,2.39,3.87.76.38,1.6.57,2.53.57s1.68-.16,2.39-.49c.59-.27,1.24-.73,1.95-1.36l1.85,1.74c-.99.87-1.95,1.5-2.86,1.88-.97.4-2.1.6-3.36.6-2.06,0-3.8-.55-5.2-1.66-1.59-1.26-2.39-2.98-2.39-5.16,0-2.64,1.25-4.6,3.75-5.87,1.2-.61,2.5-.92,3.88-.92,2.51,0,4.59.87,6.24,2.61Z"/>
          <path class="cls-1" d="M514.23,151.4c1.94,0,3.63.59,5.06,1.78,1.57,1.3,2.36,2.99,2.36,5.06s-.79,3.73-2.36,5.02c-1.42,1.16-3.1,1.74-5.05,1.74s-3.66-.58-5.1-1.74c-1.6-1.29-2.4-2.98-2.4-5.06,0-1.27.34-2.43,1.02-3.48.65-1.01,1.56-1.82,2.71-2.42,1.16-.6,2.41-.9,3.75-.9ZM514.2,153.81c-1.28,0-2.36.38-3.25,1.14-.97.83-1.46,1.93-1.46,3.3s.57,2.56,1.72,3.4c.89.65,1.91.98,3.04.98,1.24,0,2.31-.38,3.21-1.15.98-.84,1.47-1.92,1.47-3.24s-.5-2.43-1.49-3.26c-.91-.77-1.99-1.15-3.23-1.15Z"/>
          <path class="cls-1" d="M524.79,151.72h2.88l6.78,8.53v-8.53h3.01v12.95h-2.9l-6.76-8.5v8.5h-3.01v-12.95Z"/>
          <path class="cls-1" d="M541.1,151.72h7.84v2.4h-4.87v2.7h3.73v2.38h-3.73v5.47h-2.97v-12.95Z"/>
          <path class="cls-1" d="M558.63,151.4c1.94,0,3.63.59,5.06,1.78,1.57,1.3,2.36,2.99,2.36,5.06s-.79,3.73-2.36,5.02c-1.42,1.16-3.1,1.74-5.05,1.74s-3.66-.58-5.1-1.74c-1.6-1.29-2.4-2.98-2.4-5.06,0-1.27.34-2.43,1.02-3.48.65-1.01,1.56-1.82,2.71-2.42,1.16-.6,2.41-.9,3.75-.9ZM558.6,153.81c-1.28,0-2.36.38-3.25,1.14-.97.83-1.46,1.93-1.46,3.3s.57,2.56,1.72,3.4c.89.65,1.91.98,3.04.98,1.24,0,2.31-.38,3.21-1.15.98-.84,1.47-1.92,1.47-3.24s-.5-2.43-1.49-3.26c-.91-.77-1.99-1.15-3.23-1.15Z"/>
          <path class="cls-1" d="M569.18,151.72h4.07c3.78,0,5.67,1.28,5.67,3.85,0,1.74-.9,2.93-2.71,3.55l3.58,5.56h-3.3l-3.28-5.06c-.32.01-.66.02-1.03.02v5.05h-3v-12.95ZM572.18,157.24h1.66c.53,0,1.01-.13,1.42-.38.49-.31.74-.73.74-1.28,0-.96-.75-1.44-2.26-1.44h-1.56v3.1Z"/>
          <path class="cls-1" d="M580.42,151.72h9.88v2.43h-3.41v10.52h-3.06v-10.52h-3.42v-2.43Z"/>
          <path class="cls-1" d="M599.47,151.4c1.94,0,3.63.59,5.06,1.78,1.57,1.3,2.36,2.99,2.36,5.06s-.79,3.73-2.36,5.02c-1.42,1.16-3.1,1.74-5.05,1.74s-3.66-.58-5.1-1.74c-1.6-1.29-2.4-2.98-2.4-5.06,0-1.27.34-2.43,1.02-3.48.65-1.01,1.56-1.82,2.71-2.42,1.16-.6,2.41-.9,3.75-.9ZM599.44,153.81c-1.28,0-2.36.38-3.25,1.14-.97.83-1.46,1.93-1.46,3.3s.57,2.56,1.72,3.4c.89.65,1.91.98,3.04.98,1.24,0,2.31-.38,3.21-1.15.98-.84,1.47-1.92,1.47-3.24s-.5-2.43-1.49-3.26c-.91-.77-1.99-1.15-3.23-1.15Z"/>
          <path class="cls-1" d="M620,151.72h9.88v2.43h-3.41v10.52h-3.06v-10.52h-3.42v-2.43Z"/>
          <path class="cls-1" d="M632.05,151.72h8.63v2.41h-5.65v2.6h4.32v2.38h-4.32v3.14h5.65v2.42h-8.63v-12.95ZM638.32,147.15h-1.01l-2.65,3.51h1.01l2.65-3.51ZM639.56,147.15h-1.01l-2.64,3.51h1l2.65-3.51Z"/>
          <path class="cls-1" d="M643.47,151.72h4.07c3.78,0,5.67,1.28,5.67,3.85,0,1.74-.9,2.93-2.71,3.55l3.58,5.56h-3.3l-3.28-5.06c-.32.01-.66.02-1.03.02v5.05h-3v-12.95ZM646.47,157.24h1.66c.53,0,1.01-.13,1.42-.38.49-.31.74-.73.74-1.28,0-.96-.75-1.44-2.26-1.44h-1.56v3.1Z"/>
          <path class="cls-1" d="M672.56,151.72v12.95h-2.77v-8.3l-4.01,8.3h-3.01l-3.92-8.02v8.02h-2.77v-12.95h3.44l4.77,9.48,4.84-9.48h3.44Z"/>
          <path class="cls-1" d="M675.82,151.72h2.99v12.95h-2.99v-12.95Z"/>
          <path class="cls-1" d="M695.4,154.01l-1.91,1.65c-1.3-1.24-2.76-1.86-4.39-1.86-1.27,0-2.38.37-3.31,1.12-1.03.83-1.55,1.92-1.55,3.27,0,1.78.8,3.07,2.39,3.87.76.38,1.6.57,2.53.57s1.68-.16,2.39-.49c.59-.27,1.24-.73,1.95-1.36l1.85,1.74c-.99.87-1.95,1.5-2.86,1.88-.97.4-2.1.6-3.36.6-2.06,0-3.8-.55-5.2-1.66-1.59-1.26-2.39-2.98-2.39-5.16,0-2.64,1.25-4.6,3.75-5.87,1.2-.61,2.5-.92,3.88-.92,2.51,0,4.59.87,6.24,2.61Z"/>
          <path class="cls-1" d="M705.35,151.4c1.94,0,3.63.59,5.06,1.78,1.57,1.3,2.36,2.99,2.36,5.06s-.79,3.73-2.36,5.02c-1.42,1.16-3.1,1.74-5.05,1.74s-3.66-.58-5.1-1.74c-1.6-1.29-2.4-2.98-2.4-5.06,0-1.27.34-2.43,1.02-3.48.65-1.01,1.56-1.82,2.71-2.42,1.16-.6,2.41-.9,3.75-.9ZM705.32,153.81c-1.28,0-2.36.38-3.25,1.14-.97.83-1.46,1.93-1.46,3.3s.57,2.56,1.72,3.4c.89.65,1.91.98,3.04.98,1.24,0,2.31-.38,3.21-1.15.98-.84,1.47-1.92,1.47-3.24s-.5-2.43-1.49-3.26c-.91-.77-1.99-1.15-3.23-1.15Z"/>
        </g>
        <path class="cls-1" d="M411.77,156.43c.57-1.77,5.32-2.34,5.83.77.94,5.75-7.77,5.26-5.83-.77Z"/>
        <path class="cls-1" d="M475.49,156.43c.57-1.77,5.32-2.34,5.83.77.94,5.75-7.77,5.26-5.83-.77Z"/>
        <polygon class="cls-1" points="258.71 110.88 293.77 110.88 293.77 120.98 246.23 120.98 246.23 103.44 258.71 103.44 258.71 110.88"/>
        <path class="cls-1" d="M343.66,103.44l-9.24,17.58c-2.62-.53-10.78.85-12.43-.62l-9.22-16.96h14.39l1.08,2.09,1.16-2.09h14.26Z"/>
        <path class="cls-1" d="M414.67,103.44c-.05,1.66-.14,3.1-.25,4.17-1.25,12.3-12.02,14.05-22.26,14.59-9.89.52-27.61,1.31-31.94-9.71-.6-1.52-.98-5-1.17-9.04h12.43c.04.72.09,1.34.14,1.81.34,2.82,1.54,4.5,4.29,5.23,3.29.86,15.51.82,19.21.41,2.75-.31,5.21-1.27,5.95-4.15.17-.65.29-1.84.38-3.29h13.23Z"/>
        <path class="cls-1" d="M463.15,111.77v9.21h-43.98v-17.54h13.07v7.44h30.02c.06,0,.89.82.89.89Z"/>
        <path class="cls-1" d="M520.2,103.44v5.95c0,2.49-3.13,6.96-5.15,8.51-7.35,5.66-33.81,5.85-41.64.84-2.44-1.55-6.69-7.11-6.69-9.95v-5.36h12.49v1.2c0,1.84,1.94,4.96,3.82,5.69,2.34.92,16.08.93,18.92.41,2-.36,5.19-2.89,5.19-4.91v-2.39h13.08Z"/>
        <path class="cls-1" d="M541.29,103.44h13.38v17.54h-12.77c-.65,0-.85-1.45-.92-2.05-.59-5.02-.08-10.31.31-15.49Z"/>
        <rect class="cls-1" x="576.67" y="103.44" width="13.08" height="17.54"/>
        <path class="cls-1" d="M650.06,103.44c-.18,4.17-.59,7.89-1.37,9.62-4.79,10.64-23.15,9.68-33.09,9.1-9.34-.54-19.95-2.02-21.09-13.37-.13-1.23-.23-3.13-.3-5.35h13.28c.02.49.05.9.08,1.2.26,2.65,1.37,5.23,4.14,5.97,2.7.73,16.73.67,19.94.29,3.81-.46,5.23-2.6,5.63-6.25.04-.33.07-.73.1-1.2h12.67Z"/>
        <rect class="cls-1" x="654.52" y="103.44" width="12.48" height="17.54"/>
        <polygon class="cls-1" points="710.98 103.44 710.98 120.98 699.99 120.98 681.43 103.44 710.98 103.44"/>
      </g>
    </g>
  </g>
</svg>