<?xml version="1.0" encoding="UTF-8"?>
<svg id="Layer_2" data-name="Layer 2" xmlns="http://www.w3.org/2000/svg" viewBox="0 0 467.15 397.3">
  <defs>
    <style>
      .cls-1 {
        fill: #1490dd;
      }

      .cls-2 {
        fill: #2090d6;
      }

      .cls-3 {
        fill: none;
      }

      .cls-4 {
        fill: #ee9f0b;
      }

      .cls-5 {
        fill: #003a74;
      }

      .cls-6 {
        fill: #f89f0c;
      }

      .cls-7 {
        fill: #004a86;
      }

      .cls-8 {
        fill: #fee102;
      }

      .cls-9 {
        fill: #022e62;
      }
    </style>
  </defs>
  <g id="Layer_1-2" data-name="Layer 1">
    <g>
      <g>
        <g>
          <g>
            <path class="cls-4" d="M467.15,367.56v3.62c-155.08-.18-310.33.35-465.39-.27-.76-.53-.87-3.3-.26-3.36h465.64Z"/>
            <g>
              <path class="cls-5" d="M404.13,317.16c-.67-6.69-5.29-11.63-11.75-13.22-6.04-1.48-22.29-1.28-28.78-.58-6.52.7-13.05,4.15-14.48,11.08-.69,3.34-.76,12.76-.55,19.34.07,2.22.17,4.12.3,5.35,1.14,11.35,11.76,12.83,21.09,13.37,9.93.58,28.3,1.54,33.09-9.1.78-1.73,1.19-5.45,1.37-9.62.27-6.24.02-13.48-.29-16.62ZM391.66,334.98c-.4,3.65-1.82,5.8-5.63,6.25-3.21.39-17.24.44-19.94-.29-2.77-.74-3.88-3.32-4.14-5.97-.03-.3-.06-.7-.08-1.2-.21-4.16-.2-14.33.54-16.18,1.02-2.53,3.92-3.46,6.39-3.71,4.02-.4,18.11-.6,20.91,1.96,2.4,2.18,2.4,13.16,2.07,17.93-.03.46-.07.87-.1,1.2Z"/>
              <path class="cls-5" d="M167.31,312.1c-1.4-3.18-4.08-5.67-7.22-7.04-6.08-2.65-25.43-2.55-32.43-1.7-6.59.79-12.69,4.85-13.86,11.69-.53,3.05-.72,11.73-.37,18.74.2,4.04.58,7.52,1.17,9.04,4.33,11.02,22.05,10.23,31.94,9.71,10.23-.54,21-2.28,22.26-14.59.11-1.07.2-2.5.25-4.17.25-6.97-.05-17.87-1.73-21.68ZM155.44,337.08c-.75,2.88-3.2,3.84-5.95,4.15-3.7.41-15.92.45-19.21-.41-2.75-.72-3.95-2.41-4.29-5.23-.05-.47-.1-1.09-.14-1.81-.23-4.12-.2-11.59.2-14.21.55-3.54,3.06-5.06,6.36-5.53,3.73-.54,16.62-.62,19.75.74,2.16.93,3.3,3.01,3.58,5.33.27,2.25.36,9.23.08,13.67-.08,1.46-.21,2.64-.38,3.29Z"/>
              <path class="cls-5" d="M48.15,313.88H13.08c.36,1.91-1.12,7.73,1.49,7.73h28.23c.16.43-.59.71-.59.89v8.92c0,.18.75.46.59.89H13.08v8.92h35.07v10.1H.6v-48.14h47.55v10.7Z"/>
              <path class="cls-5" d="M274.58,303.18v36.55c0,2.49-3.13,6.96-5.15,8.51-7.35,5.66-33.81,5.85-41.64.84-2.44-1.55-6.69-7.11-6.69-9.95v-34.47c0-.1-1.02-1.49.3-1.49h12.18v31.8c0,1.84,1.94,4.96,3.82,5.69,2.34.92,16.08.93,18.92.41,2-.36,5.19-2.89,5.19-4.91v-31.5c0-.1-1.02-1.49.3-1.49h12.77Z"/>
              <path class="cls-5" d="M465.35,323.99v27.34h-10.99l-18.56-17.54-14.13-13.36c-1.82-.15-.29.64-.29.88v30.02h-12.48v-46.66c0-.1-1.03-1.49.29-1.49h11.29l32.92,30.6.96.9c.03-.3.04-.6.05-.9.08-3.27-.96-6.94.54-9.79h10.4Z"/>
              <path class="cls-5" d="M114.11,303.18l-16.08,30.6-9.24,17.58c-2.62-.53-10.78.85-12.43-.62l-9.22-16.96-16.63-30.6h15.15l15.86,30.6,1.08,2.09,1.16-2.09,16.96-30.6h13.37Z"/>
              <path class="cls-5" d="M326.88,303.18v11.29h-17.83v36.85h-12.77c-.65,0-.85-1.45-.92-2.05-.59-5.02-.08-10.31.31-15.49.16-2.19.31-4.37.34-6.5.06-4.26-.8-8.67-.03-12.81h-17.24v-11.29h48.14Z"/>
              <path class="cls-5" d="M217.53,342.12v9.21h-43.98v-48.14h13.07v38.04h30.02c.06,0,.89.82.89.89Z"/>
              <rect class="cls-5" x="331.04" y="303.18" width="13.08" height="48.14"/>
            </g>
            <path class="cls-9" d="M253.44,260.41l7.1.13c4.56,5.9,9.71,11.37,14.88,16.72,1-.49-.3-1.76-.3-2.1v-14.75h6.02v25.89c-1.44-.14-3.12.25-4.5-.01-3.61-.69-12.83-15.79-17.17-18.05v18.06h-6.02v-25.89Z"/>
            <path class="cls-4" d="M107.16,272.45v3.61H.6c-.18,0-.17-2.99-.6-3.61h107.16Z"/>
            <path class="cls-9" d="M332.98,268.76c.39.6,10.52,2.23,12.43,2.91,4.52,1.61,6.42,4.48,5.41,9.36-1.94,9.38-23.69,5.71-24.44,2.49-.14-.59.69-3.63,1.46-3.84.62-.17,6.26,2.02,7.92,2.23,2.57.32,12.22.37,9.23-4.24-2.24-3.46-19.91-.35-17.97-11.41,1.52-8.67,16.69-7.49,22.49-4.07l-1.85,4.81c-2.32-2.22-12.98-3.74-14.46-1.2-.36.63-.57,2.41-.22,2.95Z"/>
            <rect class="cls-4" x="363.61" y="272.45" width="102.34" height="3.61"/>
            <path class="cls-9" d="M190.78,261.66c-.12,7.75-3.29,3.6-7.53,3.01-2.26-.31-8.69-.64-8.71,2.67-.01,2.61,10.39,3.53,12.84,4.64,3.6,1.63,5.12,4.01,4.67,8.01-.91,8.03-12.99,7.78-18.81,6.13-2.15-.61-5.14-1.41-4.6-4.19.81-4.17,5.17-.45,8.19,0,2.72.4,12.7.35,9.22-4.4-2.28-3.11-15.16-.93-16.77-7.91-2.68-11.65,14.51-11.08,21.49-7.96Z"/>
            <path class="cls-9" d="M308.24,260.66c-.82-1.04-5.6-.1-7.24.04l-12.03,25.59c1.36-.28,5.03.46,5.92-.1.45-.28,2.17-5.77,2.91-5.94,1.34-.33,13.68-.17,14.1.4.75.99,1.61,4.89,2.32,5.37,1.27.85,4.42-.36,6.04.88l-12.02-26.24ZM299.8,275.46c1.43-3.32,3.49-6.72,4.22-10.23,2.7,2.57,3.27,7.09,5.41,10.23h-9.63Z"/>
            <path class="cls-9" d="M135.75,260.41c-5.13-.85-12.38.63-17.76,0v26.49c1.79-.9,3.63-.9,5.42,0v-8.43c3.95-1.23,8.28-.07,12.2-.75,9.67-1.67,9.77-15.72.14-17.31ZM135.69,272.38c-.31.2-3.37,1.27-3.55,1.27h-8.73v-8.43h11.14c2.34,0,4.03,5.3,1.14,7.16Z"/>
            <path class="cls-9" d="M226.88,283.81c-.19.32-5.07,2.61-5.91,2.82-10.78,2.62-22.64-3.13-20.95-15.53,1.32-9.7,12.02-12.71,20.47-11.15,1.25.23,7.36,2.95,7.04,4.33-.07.29-3.02,3.19-3.28,3.21-.37.03-3.76-2.41-5.57-2.72-1.48-.25-3.82-.34-5.29-.16-10.85,1.35-11.45,19.16,4.23,17.47,1.97-.21,5.96-2.42,6.53-2.31.9.17,3.38,2.92,2.72,4.05Z"/>
            <path class="cls-4" d="M465.95,303.19v16.34c0,.43-.72.65-1.21.65-5.06.01-10.44-1.16-15.43.24v-17.24h16.64Z"/>
            <path class="cls-9" d="M157.72,260.41v25.59c0,.71-6.02.62-6.02.3v-26.49c1.87.98,3.99.55,6.02.6Z"/>
            <path class="cls-9" d="M242,260.41v25.89h-5.42v-25.59c0-1.31,4.24.13,5.42-.3Z"/>
          </g>
          <g>
            <path class="cls-9" d="M6.81,382.07h3.05l6.08,12.95h-3.13l-1.23-2.93h-6.45l-1.28,2.93H.72l6.09-12.95ZM8.36,385.14l-2.11,4.46h4.21l-2.1-4.46Z"/>
            <path class="cls-9" d="M28.77,395.76c-.25-.25-.5-.58-.77-.99-.85.29-1.77.44-2.75.44-1.96,0-3.66-.58-5.1-1.74-1.6-1.29-2.4-2.98-2.4-5.06,0-1.27.34-2.43,1.02-3.48.65-1.01,1.55-1.82,2.71-2.42,1.15-.6,2.41-.9,3.76-.9,1.94,0,3.63.59,5.06,1.78,1.57,1.3,2.35,2.99,2.35,5.06,0,2.18-.88,3.93-2.65,5.25.59.78,1.56,1.38,2.91,1.81l-1.85,1.8c-.92-.39-1.68-.91-2.3-1.54ZM26.79,392.62l-.15-.3c-.52-1.03-.92-1.71-1.22-2.02-.5-.52-1.31-.94-2.42-1.28l1.83-1.78c1.06.52,1.83,1.04,2.33,1.56.56.58,1.12,1.42,1.66,2.54.74-.78,1.11-1.75,1.11-2.9,0-1.34-.5-2.42-1.49-3.26-.92-.77-2-1.15-3.24-1.15s-2.36.38-3.25,1.14c-.97.83-1.45,1.93-1.45,3.3s.57,2.57,1.71,3.4c.89.65,1.9.98,3.04.98.55,0,1.06-.07,1.54-.22Z"/>
            <path class="cls-9" d="M35.91,382.07h2.93v7.77c0,1.97.79,2.96,2.36,2.96s2.47-1,2.47-3v-7.72h2.93v7.72c0,1.87-.42,3.25-1.25,4.16-.87.93-2.23,1.4-4.09,1.4s-3.25-.46-4.11-1.38c-.83-.89-1.25-2.28-1.25-4.17v-7.72Z"/>
            <path class="cls-9" d="M50.11,382.07h8.63v2.41h-5.65v2.61h4.32v2.38h-4.32v3.14h5.65v2.42h-8.63v-12.95Z"/>
            <path class="cls-9" d="M74.75,384.35l-1.91,1.65c-1.3-1.24-2.76-1.86-4.39-1.86-1.27,0-2.38.37-3.31,1.12-1.03.83-1.55,1.92-1.55,3.27,0,1.78.8,3.07,2.39,3.87.76.38,1.6.57,2.53.57s1.68-.16,2.39-.49c.59-.27,1.24-.73,1.95-1.36l1.85,1.74c-.99.87-1.95,1.5-2.86,1.88-.97.4-2.1.6-3.36.6-2.06,0-3.8-.55-5.2-1.66-1.59-1.26-2.39-2.98-2.39-5.16,0-2.64,1.25-4.6,3.75-5.87,1.2-.61,2.5-.92,3.88-.92,2.51,0,4.59.87,6.24,2.61Z"/>
            <path class="cls-9" d="M77.48,382.07h2.99v12.95h-2.99v-12.95Z"/>
            <path class="cls-9" d="M100.16,382.07v12.95h-2.77v-8.3l-4.01,8.3h-3.01l-3.92-8.02v8.02h-2.77v-12.95h3.44l4.77,9.48,4.84-9.48h3.44Z"/>
            <path class="cls-9" d="M103.65,382.07h8.63v2.41h-5.65v2.61h4.32v2.38h-4.32v3.14h5.65v2.42h-8.63v-12.95Z"/>
            <path class="cls-9" d="M115.09,382.07h2.88l6.78,8.53v-8.53h3.01v12.95h-2.9l-6.76-8.5v8.5h-3.01v-12.95Z"/>
            <path class="cls-9" d="M129.83,382.07h9.88v2.43h-3.41v10.52h-3.06v-10.52h-3.42v-2.43Z"/>
            <path class="cls-9" d="M148.88,381.74c1.94,0,3.63.59,5.06,1.78,1.57,1.3,2.36,2.99,2.36,5.06s-.79,3.73-2.36,5.02c-1.42,1.16-3.1,1.74-5.05,1.74s-3.66-.58-5.1-1.74c-1.6-1.29-2.4-2.98-2.4-5.06,0-1.27.34-2.43,1.02-3.48.65-1.01,1.56-1.82,2.71-2.42,1.16-.6,2.41-.9,3.75-.9ZM148.85,384.15c-1.28,0-2.36.38-3.25,1.14-.97.83-1.46,1.93-1.46,3.3s.57,2.56,1.72,3.4c.89.65,1.91.98,3.04.98,1.24,0,2.31-.38,3.21-1.15.98-.84,1.47-1.92,1.47-3.24s-.5-2.43-1.49-3.26c-.91-.77-1.99-1.15-3.23-1.15Z"/>
            <path class="cls-9" d="M190.72,383.83l-2.22,1.61c-.78-.89-1.57-1.34-2.38-1.34-.29,0-.57.13-.84.4-.32.31-.49.7-.49,1.15,0,.4.53.81,1.61,1.22,1.56.6,2.56,1.05,3.01,1.35,1.08.72,1.61,1.63,1.6,2.75-.01,1.25-.54,2.31-1.59,3.17-.97.8-2.06,1.21-3.26,1.21-2.24,0-3.94-.94-5.08-2.81l2.53-1.25c.76,1.14,1.63,1.72,2.62,1.72.42,0,.81-.16,1.19-.49.44-.39.65-.87.64-1.44-.01-.48-.56-.92-1.64-1.35-1.66-.65-2.66-1.09-3-1.3-1.07-.68-1.6-1.58-1.59-2.7,0-1.07.49-2.01,1.45-2.83.9-.77,1.87-1.15,2.89-1.15,1.59,0,3.11.7,4.57,2.09Z"/>
            <path class="cls-9" d="M193.85,382.07h4.07c3.78,0,5.67,1.28,5.67,3.85,0,2.71-2.25,4.06-6.74,4.06v5.05h-3v-12.95ZM196.85,387.57h1.66c.53,0,1.01-.13,1.42-.38.49-.31.74-.73.74-1.28,0-.96-.75-1.44-2.26-1.44h-1.56v3.09Z"/>
            <path class="cls-9" d="M211,382.07h3.05l6.08,12.95h-3.13l-1.23-2.93h-6.45l-1.28,2.93h-3.12l6.09-12.95ZM212.54,385.14l-2.11,4.46h4.21l-2.1-4.46Z"/>
            <path class="cls-9" d="M258.65,384.35l-1.91,1.65c-1.3-1.24-2.76-1.86-4.39-1.86-1.27,0-2.38.37-3.31,1.12-1.03.83-1.55,1.92-1.55,3.27,0,1.78.8,3.07,2.39,3.87.76.38,1.6.57,2.53.57s1.68-.16,2.39-.49c.59-.27,1.24-.73,1.95-1.36l1.85,1.74c-.99.87-1.95,1.5-2.86,1.88-.97.4-2.1.6-3.36.6-2.06,0-3.8-.55-5.2-1.66-1.59-1.26-2.39-2.98-2.39-5.16,0-2.64,1.25-4.6,3.75-5.87,1.2-.61,2.5-.92,3.88-.92,2.51,0,4.59.87,6.24,2.61Z"/>
            <path class="cls-9" d="M268.6,381.74c1.94,0,3.63.59,5.06,1.78,1.57,1.3,2.36,2.99,2.36,5.06s-.79,3.73-2.36,5.02c-1.42,1.16-3.1,1.74-5.05,1.74s-3.66-.58-5.1-1.74c-1.6-1.29-2.4-2.98-2.4-5.06,0-1.27.34-2.43,1.02-3.48.65-1.01,1.56-1.82,2.71-2.42,1.16-.6,2.41-.9,3.75-.9ZM268.57,384.15c-1.28,0-2.36.38-3.25,1.14-.97.83-1.46,1.93-1.46,3.3s.57,2.56,1.72,3.4c.89.65,1.91.98,3.04.98,1.24,0,2.31-.38,3.21-1.15.98-.84,1.47-1.92,1.47-3.24s-.5-2.43-1.49-3.26c-.91-.77-1.99-1.15-3.23-1.15Z"/>
            <path class="cls-9" d="M279.17,382.07h2.88l6.78,8.53v-8.53h3.01v12.95h-2.9l-6.76-8.5v8.5h-3.01v-12.95Z"/>
            <path class="cls-9" d="M295.48,382.07h7.84v2.4h-4.87v2.7h3.73v2.38h-3.73v5.47h-2.97v-12.95Z"/>
            <path class="cls-9" d="M313,381.74c1.94,0,3.63.59,5.06,1.78,1.57,1.3,2.36,2.99,2.36,5.06s-.79,3.73-2.36,5.02c-1.42,1.16-3.1,1.74-5.05,1.74s-3.66-.58-5.1-1.74c-1.6-1.29-2.4-2.98-2.4-5.06,0-1.27.34-2.43,1.02-3.48.65-1.01,1.56-1.82,2.71-2.42,1.16-.6,2.41-.9,3.75-.9ZM312.97,384.15c-1.28,0-2.36.38-3.25,1.14-.97.83-1.46,1.93-1.46,3.3s.57,2.56,1.72,3.4c.89.65,1.91.98,3.04.98,1.24,0,2.31-.38,3.21-1.15.98-.84,1.47-1.92,1.47-3.24s-.5-2.43-1.49-3.26c-.91-.77-1.99-1.15-3.23-1.15Z"/>
            <path class="cls-9" d="M323.55,382.07h4.07c3.78,0,5.67,1.28,5.67,3.85,0,1.74-.9,2.93-2.71,3.55l3.58,5.56h-3.3l-3.28-5.06c-.32.01-.66.02-1.03.02v5.05h-3v-12.95ZM326.55,387.58h1.66c.53,0,1.01-.13,1.42-.38.49-.31.74-.73.74-1.28,0-.96-.75-1.44-2.26-1.44h-1.56v3.1Z"/>
            <path class="cls-9" d="M334.8,382.07h9.88v2.43h-3.41v10.52h-3.06v-10.52h-3.42v-2.43Z"/>
            <path class="cls-9" d="M353.84,381.74c1.94,0,3.63.59,5.06,1.78,1.57,1.3,2.36,2.99,2.36,5.06s-.79,3.73-2.36,5.02c-1.42,1.16-3.1,1.74-5.05,1.74s-3.66-.58-5.1-1.74c-1.6-1.29-2.4-2.98-2.4-5.06,0-1.27.34-2.43,1.02-3.48.65-1.01,1.56-1.82,2.71-2.42,1.16-.6,2.41-.9,3.75-.9ZM353.82,384.15c-1.28,0-2.36.38-3.25,1.14-.97.83-1.46,1.93-1.46,3.3s.57,2.56,1.72,3.4c.89.65,1.91.98,3.04.98,1.24,0,2.31-.38,3.21-1.15.98-.84,1.47-1.92,1.47-3.24s-.5-2.43-1.49-3.26c-.91-.77-1.99-1.15-3.23-1.15Z"/>
            <path class="cls-9" d="M374.37,382.07h9.88v2.43h-3.41v10.52h-3.06v-10.52h-3.42v-2.43Z"/>
            <path class="cls-9" d="M386.42,382.07h8.63v2.41h-5.65v2.6h4.32v2.38h-4.32v3.14h5.65v2.42h-8.63v-12.95ZM392.7,377.5h-1.01l-2.65,3.51h1.01l2.65-3.51ZM393.93,377.5h-1.01l-2.64,3.51h1l2.65-3.51Z"/>
            <path class="cls-9" d="M397.84,382.07h4.07c3.78,0,5.67,1.28,5.67,3.85,0,1.74-.9,2.93-2.71,3.55l3.58,5.56h-3.3l-3.28-5.06c-.32.01-.66.02-1.03.02v5.05h-3v-12.95ZM400.84,387.58h1.66c.53,0,1.01-.13,1.42-.38.49-.31.74-.73.74-1.28,0-.96-.75-1.44-2.26-1.44h-1.56v3.1Z"/>
            <path class="cls-9" d="M426.93,382.07v12.95h-2.77v-8.3l-4.01,8.3h-3.01l-3.92-8.02v8.02h-2.77v-12.95h3.44l4.77,9.48,4.84-9.48h3.44Z"/>
            <path class="cls-9" d="M430.19,382.07h2.99v12.95h-2.99v-12.95Z"/>
            <path class="cls-9" d="M449.77,384.35l-1.91,1.65c-1.3-1.24-2.76-1.86-4.39-1.86-1.27,0-2.38.37-3.31,1.12-1.03.83-1.55,1.92-1.55,3.27,0,1.78.8,3.07,2.39,3.87.76.38,1.6.57,2.53.57s1.68-.16,2.39-.49c.59-.27,1.24-.73,1.95-1.36l1.85,1.74c-.99.87-1.95,1.5-2.86,1.88-.97.4-2.1.6-3.36.6-2.06,0-3.8-.55-5.2-1.66-1.59-1.26-2.39-2.98-2.39-5.16,0-2.64,1.25-4.6,3.75-5.87,1.2-.61,2.5-.92,3.88-.92,2.51,0,4.59.87,6.24,2.61Z"/>
            <path class="cls-9" d="M459.72,381.74c1.94,0,3.63.59,5.06,1.78,1.57,1.3,2.36,2.99,2.36,5.06s-.79,3.73-2.36,5.02c-1.42,1.16-3.1,1.74-5.05,1.74s-3.66-.58-5.1-1.74c-1.6-1.29-2.4-2.98-2.4-5.06,0-1.27.34-2.43,1.02-3.48.65-1.01,1.56-1.82,2.71-2.42,1.16-.6,2.41-.9,3.75-.9ZM459.7,384.15c-1.28,0-2.36.38-3.25,1.14-.97.83-1.46,1.93-1.46,3.3s.57,2.56,1.72,3.4c.89.65,1.91.98,3.04.98,1.24,0,2.31-.38,3.21-1.15.98-.84,1.47-1.92,1.47-3.24s-.5-2.43-1.49-3.26c-.91-.77-1.99-1.15-3.23-1.15Z"/>
          </g>
          <path class="cls-6" d="M166.14,386.77c.57-1.77,5.32-2.34,5.83.77.94,5.75-7.77,5.26-5.83-.77Z"/>
          <path class="cls-6" d="M229.87,386.77c.57-1.77,5.32-2.34,5.83.77.94,5.75-7.77,5.26-5.83-.77Z"/>
          <polygon class="cls-9" points="13.08 341.23 48.15 341.23 48.15 351.33 .6 351.33 .6 333.78 13.08 333.78 13.08 341.23"/>
          <path class="cls-9" d="M98.03,333.78l-9.24,17.58c-2.62-.53-10.78.85-12.43-.62l-9.22-16.96h14.39l1.08,2.09,1.16-2.09h14.26Z"/>
          <path class="cls-9" d="M169.04,333.78c-.05,1.66-.14,3.1-.25,4.17-1.25,12.3-12.02,14.05-22.26,14.59-9.89.52-27.61,1.31-31.94-9.71-.6-1.52-.98-5-1.17-9.04h12.43c.04.72.09,1.34.14,1.81.34,2.82,1.54,4.5,4.29,5.23,3.29.86,15.51.82,19.21.41,2.75-.31,5.21-1.27,5.95-4.15.17-.65.29-1.84.38-3.29h13.23Z"/>
          <path class="cls-9" d="M217.53,342.12v9.21h-43.98v-17.54h13.07v7.44h30.02c.06,0,.89.82.89.89Z"/>
          <path class="cls-9" d="M274.58,333.78v5.95c0,2.49-3.13,6.96-5.15,8.51-7.35,5.66-33.81,5.85-41.64.84-2.44-1.55-6.69-7.11-6.69-9.95v-5.36h12.49v1.2c0,1.84,1.94,4.96,3.82,5.69,2.34.92,16.08.93,18.92.41,2-.36,5.19-2.89,5.19-4.91v-2.39h13.08Z"/>
          <path class="cls-9" d="M295.67,333.78h13.38v17.54h-12.77c-.65,0-.85-1.45-.92-2.05-.59-5.02-.08-10.31.31-15.49Z"/>
          <rect class="cls-9" x="331.04" y="333.78" width="13.08" height="17.54"/>
          <path class="cls-9" d="M404.43,333.78c-.18,4.17-.59,7.89-1.37,9.62-4.79,10.64-23.15,9.68-33.09,9.1-9.34-.54-19.95-2.02-21.09-13.37-.13-1.23-.23-3.13-.3-5.35h13.28c.02.49.05.9.08,1.2.26,2.65,1.37,5.23,4.14,5.97,2.7.73,16.73.67,19.94.29,3.81-.46,5.23-2.6,5.63-6.25.04-.33.07-.73.1-1.2h12.67Z"/>
          <rect class="cls-9" x="408.9" y="333.78" width="12.48" height="17.54"/>
          <polygon class="cls-9" points="465.35 333.78 465.35 351.33 454.36 351.33 435.8 333.78 465.35 333.78"/>
        </g>
        <g>
          <path class="cls-9" d="M301.14,116.04c-18.81-3.71-36.47-1.71-54.36,4.71-20.16,7.24-37.54,20.55-57.8,27.49-13.63,4.66-24.95,5.21-38.82,6.98l12.19-4.46c23.08-7.9,43.62-21.78,66.11-30.85,21.83-8.81,45.81-13.09,68.81-5.91,1.06.33,3.56.87,3.88,2.05Z"/>
          <path class="cls-8" d="M329.1,100.66l-3.22-3.06c-1.11-1.68-2.28-3.31-3.51-4.89-22.35-28.77-64.23-41.94-99.75-33.97-.24.06-2.82,1.01-4.28,1.42-36.74,10.47-62.49,41.35-59.1,81.4.12,1.4,1.55,9.38,2.43,9.43.11-.04.22-.08.34-.11l-8.29,3.03-3.57,1.31c-.1,0-.2.02-.29.03-2.31.3-6.1,2.88-8.16.35-2.16-2.66-3-12.05-4.8-15.47-10-76.73,70.33-125.9,138.12-97.9,14.33,5.91,32.75,20.11,41.92,33.55,5.02,7.35,9.69,16.41,12.16,24.89Z"/>
          <path class="cls-9" d="M357.07,165.67c-.69.7-6.1-4.55-7.04-5.19-59.29-40.25-116.01,20.85-177.13,24.1-29.08,1.55-63.89-5.01-82.86-28.68,1.08.5,2.16.99,3.24,1.45,33.32,14.24,70.16,9.07,103.18-3.73,29-11.24,53.92-29.73,86.17-31.97,25.03-1.74,46.33,6.56,61.29,23.48,5.17,5.84,9.59,12.7,13.15,20.54Z"/>
          <path class="cls-9" d="M348.68,169.88l-.33,1.37c-14.84-3.87-29.53-4.34-44.54-1.17-23.16,4.88-42.15,20.61-65,25.89-16.41,3.79-33.47,3.26-49.92,0-3.39-.67-6.75-1.45-10.07-2.34,1.69-2.13,6.05-1.15,8.65-1.48,5.32-.68,10.74-1.68,15.96-2.92,38.95-9.15,61.15-35.44,105.09-32.68,6.13.38,11.97,1.53,17.62,3.26,7.83,2.4,15.27,5.91,22.54,10.06Z"/>
          <path class="cls-9" d="M317.92,176.87c-1.2,2.54-2.55,5.01-4.05,7.39-13.14,20.9-37.39,35.95-61.08,41.07-28.21,6.1-61.36.8-86.26-14.82-3.15-1.96-6.16-4.1-9.02-6.4-1.22-.98-9.19-8.14-9.45-8.72-.18-.41-.13-1.18.34-1.03,51.65,25.48,117.18,23.98,163.56-11.91l5.96-5.56Z"/>
          <path class="cls-4" d="M280.88,6.99v29.36c-5.86-.2-11.5-3.49-17.29-4.73-2.3-.23,1.43-5.11,2.2-6.18,3.31-4.55,7.65-9.21,11.12-13.72,1.02-1.33,1.56-4.78,3.97-4.72Z"/>
          <path class="cls-4" d="M190.31,15.1c2.88,3.24,5.3,6.27,8.12,9.52,1.33,1.53,4,3.34,5.12,4.72.38.47.75.33.43,1.41-6.44,1.76-12.98,5.09-19.57,5.61l-.69-28.66c2.48,2.15,4.42,4.96,6.59,7.4Z"/>
          <path class="cls-4" d="M224.25,27.97c1.52-6.38,4.41-12.5,5.09-19.03l3.64-8.94,10.14,27.97h-18.87Z"/>
          <path class="cls-4" d="M147.84,33.8c6.22,2.55,14.46,7.25,20.34,9.52,1.23.47,3.21-.89,2.29,2.43-.12.42-6.12,3.35-7.54,4.39-1.27.92-6.3,6-7.46,5.78l-12.99-22.71c-.11-2.41,1.64-.14,2.63.19.84.28,1.76.02,2.73.42Z"/>
          <path class="cls-4" d="M322.81,32.16c1.24,1.55-1.09,2.86-1.34,3.37-1.76,3.63-3.9,6.77-5.85,10.09-.81,1.38-5.14,10.36-5.75,10.33-5.28-3.23-9.52-7.53-15.02-10.52l.4-1.43,27.55-11.84Z"/>
          <path class="cls-4" d="M142.47,71.32c.37.39-2.4,5.49-2.88,6.39-.86,1.63-2.17,4.69-2.95,5.95-2.56,4.13-3.95-.36-5.67-1.9-4.62-4.14-11.72-9.13-15.42-13.94-.54-.7-1.36-.89-1.04-2.1l27.96,5.6Z"/>
          <path class="cls-4" d="M131.98,100.67c-1,5.61-3.25,11.1-3.5,16.77-.89.92-19.11-7.62-22.36-7-.22-1.46.84-2.03,1.94-2.6,3.29-1.69,16.94-5.97,20.98-6.99.99-.25,1.94-.28,2.95-.19Z"/>
          <line class="cls-3" x1="163.1" y1="150.48" x2="162.35" y2="150.75"/>
          <path class="cls-4" d="M322.38,92.71c-22.35-28.77-64.23-41.94-99.75-33.97-.24.06-2.82,1.01-4.28,1.42-36.74,10.47-62.49,41.35-59.1,81.4.12,1.4,1.55,9.38,2.43,9.43.11-.04.22-.08.34-.11l-8.29,3.03c-2.46-7.2-3.78-14.82-3.78-22.7,0-44.16,41.39-79.96,92.44-79.96,24.77,0,46.82,10.09,63.42,23.8,6.44,5.33,12.05,11.22,16.57,17.67Z"/>
          <path class="cls-7" d="M343.92,145.13c-13.49-8.54-40.69-19.79-79.29-7.03,0,0-55.45,22.84-69.01,27.12-13.32,4.21-62.26,13.25-102.34-7.89,33.32,14.24,70.16,9.07,103.18-3.73,29-11.24,53.92-29.73,86.17-31.97,25.03-1.74,46.33,6.56,61.29,23.48Z"/>
          <path class="cls-2" d="M326.14,159.83c-10.02-1.17-30.75-1.12-53.18,13.5-26.05,16.97-57.83,25.93-84.07,22.65-3.39-.67-6.75-1.45-10.07-2.34,1.69-2.13,6.05-1.15,8.65-1.48,5.32-.68,10.74-1.68,15.96-2.92,38.95-9.15,61.15-35.44,105.09-32.68,6.13.38,11.97,1.53,17.62,3.26Z"/>
          <path class="cls-1" d="M317.92,176.87c-1.2,2.54-2.55,5.01-4.05,7.39-21.89,22.84-55.29,37.43-92.72,37.43-19.68,0-38.24-4.03-54.61-11.18-3.15-1.96-6.16-4.1-9.02-6.4-1.22-.98-9.19-8.14-9.45-8.72-.18-.41-.13-1.18.34-1.03,51.65,25.48,117.18,23.98,163.56-11.91l5.96-5.56Z"/>
        </g>
      </g>
      <g>
        <path class="cls-9" d="M301.14,116.04c-18.81-3.71-36.47-1.71-54.36,4.71-20.16,7.24-37.54,20.55-57.8,27.49-13.63,4.66-24.95,5.21-38.82,6.98l12.19-4.46c23.08-7.9,43.62-21.78,66.11-30.85,21.83-8.81,45.81-13.09,68.81-5.91,1.06.33,3.56.87,3.88,2.05Z"/>
        <path class="cls-8" d="M329.1,100.66l-3.22-3.06c-1.11-1.68-2.28-3.31-3.51-4.89-22.35-28.77-64.23-41.94-99.75-33.97-.24.06-2.82,1.01-4.28,1.42-36.74,10.47-62.49,41.35-59.1,81.4.12,1.4,1.55,9.38,2.43,9.43.11-.04.22-.08.34-.11l-8.29,3.03-3.57,1.31c-.1,0-.2.02-.29.03-2.31.3-6.1,2.88-8.16.35-2.16-2.66-3-12.05-4.8-15.47-10-76.73,70.33-125.9,138.12-97.9,14.33,5.91,32.75,20.11,41.92,33.55,5.02,7.35,9.69,16.41,12.16,24.89Z"/>
        <path class="cls-9" d="M357.07,165.67c-.69.7-6.1-4.55-7.04-5.19-59.29-40.25-116.01,20.85-177.13,24.1-29.08,1.55-63.89-5.01-82.86-28.68,1.08.5,2.16.99,3.24,1.45,33.32,14.24,70.16,9.07,103.18-3.73,29-11.24,53.92-29.73,86.17-31.97,25.03-1.74,46.33,6.56,61.29,23.48,5.17,5.84,9.59,12.7,13.15,20.54Z"/>
        <path class="cls-9" d="M348.68,169.88l-.33,1.37c-14.84-3.87-29.53-4.34-44.54-1.17-23.16,4.88-42.15,20.61-65,25.89-16.41,3.79-33.47,3.26-49.92,0-3.39-.67-6.75-1.45-10.07-2.34,1.69-2.13,6.05-1.15,8.65-1.48,5.32-.68,10.74-1.68,15.96-2.92,38.95-9.15,61.15-35.44,105.09-32.68,6.13.38,11.97,1.53,17.62,3.26,7.83,2.4,15.27,5.91,22.54,10.06Z"/>
        <path class="cls-9" d="M317.92,176.87c-1.2,2.54-2.55,5.01-4.05,7.39-13.14,20.9-37.39,35.95-61.08,41.07-28.21,6.1-61.36.8-86.26-14.82-3.15-1.96-6.16-4.1-9.02-6.4-1.22-.98-9.19-8.14-9.45-8.72-.18-.41-.13-1.18.34-1.03,51.65,25.48,117.18,23.98,163.56-11.91l5.96-5.56Z"/>
        <path class="cls-4" d="M280.88,6.99v29.36c-5.86-.2-11.5-3.49-17.29-4.73-2.3-.23,1.43-5.11,2.2-6.18,3.31-4.55,7.65-9.21,11.12-13.72,1.02-1.33,1.56-4.78,3.97-4.72Z"/>
        <path class="cls-4" d="M190.31,15.1c2.88,3.24,5.3,6.27,8.12,9.52,1.33,1.53,4,3.34,5.12,4.72.38.47.75.33.43,1.41-6.44,1.76-12.98,5.09-19.57,5.61l-.69-28.66c2.48,2.15,4.42,4.96,6.59,7.4Z"/>
        <path class="cls-4" d="M224.25,27.97c1.52-6.38,4.41-12.5,5.09-19.03l3.64-8.94,10.14,27.97h-18.87Z"/>
        <path class="cls-4" d="M147.84,33.8c6.22,2.55,14.46,7.25,20.34,9.52,1.23.47,3.21-.89,2.29,2.43-.12.42-6.12,3.35-7.54,4.39-1.27.92-6.3,6-7.46,5.78l-12.99-22.71c-.11-2.41,1.64-.14,2.63.19.84.28,1.76.02,2.73.42Z"/>
        <path class="cls-4" d="M322.81,32.16c1.24,1.55-1.09,2.86-1.34,3.37-1.76,3.63-3.9,6.77-5.85,10.09-.81,1.38-5.14,10.36-5.75,10.33-5.28-3.23-9.52-7.53-15.02-10.52l.4-1.43,27.55-11.84Z"/>
        <path class="cls-4" d="M142.47,71.32c.37.39-2.4,5.49-2.88,6.39-.86,1.63-2.17,4.69-2.95,5.95-2.56,4.13-3.95-.36-5.67-1.9-4.62-4.14-11.72-9.13-15.42-13.94-.54-.7-1.36-.89-1.04-2.1l27.96,5.6Z"/>
        <path class="cls-4" d="M131.98,100.67c-1,5.61-3.25,11.1-3.5,16.77-.89.92-19.11-7.62-22.36-7-.22-1.46.84-2.03,1.94-2.6,3.29-1.69,16.94-5.97,20.98-6.99.99-.25,1.94-.28,2.95-.19Z"/>
        <line class="cls-3" x1="163.1" y1="150.48" x2="162.35" y2="150.75"/>
        <path class="cls-4" d="M322.38,92.71c-22.35-28.77-64.23-41.94-99.75-33.97-.24.06-2.82,1.01-4.28,1.42-36.74,10.47-62.49,41.35-59.1,81.4.12,1.4,1.55,9.38,2.43,9.43.11-.04.22-.08.34-.11l-8.29,3.03c-2.46-7.2-3.78-14.82-3.78-22.7,0-44.16,41.39-79.96,92.44-79.96,24.77,0,46.82,10.09,63.42,23.8,6.44,5.33,12.05,11.22,16.57,17.67Z"/>
        <path class="cls-7" d="M343.92,145.13c-13.49-8.54-40.69-19.79-79.29-7.03,0,0-55.45,22.84-69.01,27.12-13.32,4.21-62.26,13.25-102.34-7.89,33.32,14.24,70.16,9.07,103.18-3.73,29-11.24,53.92-29.73,86.17-31.97,25.03-1.74,46.33,6.56,61.29,23.48Z"/>
        <path class="cls-2" d="M326.14,159.83c-10.02-1.17-30.75-1.12-53.18,13.5-26.05,16.97-57.83,25.93-84.07,22.65-3.39-.67-6.75-1.45-10.07-2.34,1.69-2.13,6.05-1.15,8.65-1.48,5.32-.68,10.74-1.68,15.96-2.92,38.95-9.15,61.15-35.44,105.09-32.68,6.13.38,11.97,1.53,17.62,3.26Z"/>
        <path class="cls-1" d="M317.92,176.87c-1.2,2.54-2.55,5.01-4.05,7.39-21.89,22.84-55.29,37.43-92.72,37.43-19.68,0-38.24-4.03-54.61-11.18-3.15-1.96-6.16-4.1-9.02-6.4-1.22-.98-9.19-8.14-9.45-8.72-.18-.41-.13-1.18.34-1.03,51.65,25.48,117.18,23.98,163.56-11.91l5.96-5.56Z"/>
      </g>
    </g>
  </g>
</svg>